STARTFONT 2.1
COMMENT Generated from Helvetica-Regular.ttf by Python/Pillow
FONT -FreeType-Helvetica-Medium-R-Normal--8-80-72-72-P-0-ISO10646-1
SIZE 8 72 72
FONTBOUNDINGBOX 8 9 0 -2
STARTPROPERTIES 7
PIXEL_SIZE 8
POINT_SIZE 80
RESOLUTION_X 72
RESOLUTION_Y 72
FONT_ASCENT 7
FONT_DESCENT 2
DEFAULT_CHAR 32
ENDPROPERTIES
CHARS 95
STARTCHAR char32
ENCODING 32
SWIDTH 250 0
DWIDTH 2 0
BBX 0 0 0 0
BITMAP
ENDCHAR
STARTCHAR char33
ENCODING 33
SWIDTH 250 0
DWIDTH 2 0
BBX 2 6 0 0
BITMAP
40
40
40
40
00
40
ENDCHAR
STARTCHAR char34
ENCODING 34
SWIDTH 375 0
DWIDTH 3 0
BBX 3 6 0 0
BITMAP
00
80
00
00
00
00
ENDCHAR
STARTCHAR char35
ENCODING 35
SWIDTH 500 0
DWIDTH 4 0
BBX 5 6 0 0
BITMAP
00
10
70
60
60
20
ENDCHAR
STARTCHAR char36
ENCODING 36
SWIDTH 500 0
DWIDTH 4 0
BBX 5 8 0 -1
BITMAP
00
60
90
40
30
10
70
00
ENDCHAR
STARTCHAR char37
ENCODING 37
SWIDTH 875 0
DWIDTH 7 0
BBX 7 7 0 -1
BITMAP
00
A0
A0
04
0A
04
00
ENDCHAR
STARTCHAR char38
ENCODING 38
SWIDTH 625 0
DWIDTH 5 0
BBX 6 7 0 -1
BITMAP
20
50
60
60
90
78
00
ENDCHAR
STARTCHAR char39
ENCODING 39
SWIDTH 250 0
DWIDTH 2 0
BBX 2 6 0 0
BITMAP
00
00
00
00
00
00
ENDCHAR
STARTCHAR char40
ENCODING 40
SWIDTH 375 0
DWIDTH 3 0
BBX 3 8 0 -2
BITMAP
00
40
00
00
00
00
40
00
ENDCHAR
STARTCHAR char41
ENCODING 41
SWIDTH 375 0
DWIDTH 3 0
BBX 3 8 0 -2
BITMAP
00
40
40
40
40
40
00
00
ENDCHAR
STARTCHAR char42
ENCODING 42
SWIDTH 375 0
DWIDTH 3 0
BBX 3 6 0 0
BITMAP
00
40
00
00
00
00
ENDCHAR
STARTCHAR char43
ENCODING 43
SWIDTH 625 0
DWIDTH 5 0
BBX 5 5 0 0
BITMAP
00
20
20
20
20
ENDCHAR
STARTCHAR char44
ENCODING 44
SWIDTH 250 0
DWIDTH 2 0
BBX 2 3 0 -2
BITMAP
00
00
00
ENDCHAR
STARTCHAR char45
ENCODING 45
SWIDTH 375 0
DWIDTH 3 0
BBX 3 3 0 0
BITMAP
40
00
00
ENDCHAR
STARTCHAR char46
ENCODING 46
SWIDTH 250 0
DWIDTH 2 0
BBX 2 1 0 0
BITMAP
00
ENDCHAR
STARTCHAR char47
ENCODING 47
SWIDTH 250 0
DWIDTH 2 0
BBX 3 6 0 0
BITMAP
00
40
40
00
80
80
ENDCHAR
STARTCHAR char48
ENCODING 48
SWIDTH 500 0
DWIDTH 4 0
BBX 5 7 0 -1
BITMAP
20
10
90
90
90
60
00
ENDCHAR
STARTCHAR char49
ENCODING 49
SWIDTH 500 0
DWIDTH 4 0
BBX 4 6 0 0
BITMAP
00
60
20
20
20
20
ENDCHAR
STARTCHAR char50
ENCODING 50
SWIDTH 500 0
DWIDTH 4 0
BBX 5 6 0 0
BITMAP
20
10
10
20
40
F0
ENDCHAR
STARTCHAR char51
ENCODING 51
SWIDTH 500 0
DWIDTH 4 0
BBX 5 7 0 -1
BITMAP
20
10
10
10
90
70
00
ENDCHAR
STARTCHAR char52
ENCODING 52
SWIDTH 500 0
DWIDTH 4 0
BBX 5 6 0 0
BITMAP
00
20
40
00
70
00
ENDCHAR
STARTCHAR char53
ENCODING 53
SWIDTH 500 0
DWIDTH 4 0
BBX 5 7 0 -1
BITMAP
60
00
60
10
10
70
00
ENDCHAR
STARTCHAR char54
ENCODING 54
SWIDTH 500 0
DWIDTH 4 0
BBX 5 7 0 -1
BITMAP
20
50
A0
90
90
70
00
ENDCHAR
STARTCHAR char55
ENCODING 55
SWIDTH 500 0
DWIDTH 4 0
BBX 5 6 0 0
BITMAP
70
10
20
20
00
40
ENDCHAR
STARTCHAR char56
ENCODING 56
SWIDTH 500 0
DWIDTH 4 0
BBX 5 7 0 -1
BITMAP
20
10
50
50
90
70
00
ENDCHAR
STARTCHAR char57
ENCODING 57
SWIDTH 500 0
DWIDTH 4 0
BBX 5 7 0 -1
BITMAP
20
90
90
70
10
60
00
ENDCHAR
STARTCHAR char58
ENCODING 58
SWIDTH 250 0
DWIDTH 2 0
BBX 2 5 0 0
BITMAP
00
40
00
00
40
ENDCHAR
STARTCHAR char59
ENCODING 59
SWIDTH 250 0
DWIDTH 2 0
BBX 2 7 0 -2
BITMAP
00
40
00
00
40
00
00
ENDCHAR
STARTCHAR char60
ENCODING 60
SWIDTH 625 0
DWIDTH 5 0
BBX 5 6 0 -1
BITMAP
00
10
40
40
10
00
ENDCHAR
STARTCHAR char61
ENCODING 61
SWIDTH 625 0
DWIDTH 5 0
BBX 5 4 0 0
BITMAP
00
00
70
00
ENDCHAR
STARTCHAR char62
ENCODING 62
SWIDTH 625 0
DWIDTH 5 0
BBX 5 6 0 -1
BITMAP
00
C0
10
30
C0
00
ENDCHAR
STARTCHAR char63
ENCODING 63
SWIDTH 500 0
DWIDTH 4 0
BBX 5 6 0 0
BITMAP
60
10
10
20
00
20
ENDCHAR
STARTCHAR char64
ENCODING 64
SWIDTH 1000 0
DWIDTH 8 0
BBX 8 7 0 -1
BITMAP
00
02
44
02
54
20
00
ENDCHAR
STARTCHAR char65
ENCODING 65
SWIDTH 625 0
DWIDTH 5 0
BBX 6 6 0 0
BITMAP
20
30
50
50
48
88
ENDCHAR
STARTCHAR char66
ENCODING 66
SWIDTH 625 0
DWIDTH 5 0
BBX 6 6 0 0
BITMAP
70
08
50
48
08
70
ENDCHAR
STARTCHAR char67
ENCODING 67
SWIDTH 750 0
DWIDTH 6 0
BBX 6 7 0 -1
BITMAP
30
48
80
80
08
78
00
ENDCHAR
STARTCHAR char68
ENCODING 68
SWIDTH 750 0
DWIDTH 6 0
BBX 6 6 0 0
BITMAP
70
08
00
00
08
70
ENDCHAR
STARTCHAR char69
ENCODING 69
SWIDTH 625 0
DWIDTH 5 0
BBX 5 6 0 0
BITMAP
78
00
40
40
00
78
ENDCHAR
STARTCHAR char70
ENCODING 70
SWIDTH 625 0
DWIDTH 5 0
BBX 5 6 0 0
BITMAP
70
00
40
40
00
00
ENDCHAR
STARTCHAR char71
ENCODING 71
SWIDTH 750 0
DWIDTH 6 0
BBX 6 7 0 -1
BITMAP
38
48
80
9C
04
7C
00
ENDCHAR
STARTCHAR char72
ENCODING 72
SWIDTH 750 0
DWIDTH 6 0
BBX 6 6 0 0
BITMAP
00
08
48
48
08
08
ENDCHAR
STARTCHAR char73
ENCODING 73
SWIDTH 250 0
DWIDTH 2 0
BBX 2 6 0 0
BITMAP
00
40
40
40
40
40
ENDCHAR
STARTCHAR char74
ENCODING 74
SWIDTH 500 0
DWIDTH 4 0
BBX 4 7 0 -1
BITMAP
00
00
00
00
80
E0
00
ENDCHAR
STARTCHAR char75
ENCODING 75
SWIDTH 625 0
DWIDTH 5 0
BBX 6 6 0 0
BITMAP
08
10
60
70
10
08
ENDCHAR
STARTCHAR char76
ENCODING 76
SWIDTH 500 0
DWIDTH 4 0
BBX 5 6 0 0
BITMAP
00
00
00
00
00
70
ENDCHAR
STARTCHAR char77
ENCODING 77
SWIDTH 875 0
DWIDTH 7 0
BBX 7 6 0 0
BITMAP
44
44
4C
2C
34
14
ENDCHAR
STARTCHAR char78
ENCODING 78
SWIDTH 750 0
DWIDTH 6 0
BBX 6 6 0 0
BITMAP
40
48
28
18
18
08
ENDCHAR
STARTCHAR char79
ENCODING 79
SWIDTH 750 0
DWIDTH 6 0
BBX 6 7 0 -1
BITMAP
38
44
84
84
04
78
00
ENDCHAR
STARTCHAR char80
ENCODING 80
SWIDTH 625 0
DWIDTH 5 0
BBX 5 6 0 0
BITMAP
70
08
48
70
00
00
ENDCHAR
STARTCHAR char81
ENCODING 81
SWIDTH 750 0
DWIDTH 6 0
BBX 6 7 0 -1
BITMAP
38
44
84
84
04
78
00
ENDCHAR
STARTCHAR char82
ENCODING 82
SWIDTH 750 0
DWIDTH 6 0
BBX 6 6 0 0
BITMAP
70
08
48
78
08
08
ENDCHAR
STARTCHAR char83
ENCODING 83
SWIDTH 625 0
DWIDTH 5 0
BBX 5 7 0 -1
BITMAP
70
08
40
18
08
70
00
ENDCHAR
STARTCHAR char84
ENCODING 84
SWIDTH 625 0
DWIDTH 5 0
BBX 5 6 0 0
BITMAP
F8
20
20
20
20
20
ENDCHAR
STARTCHAR char85
ENCODING 85
SWIDTH 750 0
DWIDTH 6 0
BBX 6 7 0 -1
BITMAP
00
08
08
08
48
78
00
ENDCHAR
STARTCHAR char86
ENCODING 86
SWIDTH 625 0
DWIDTH 5 0
BBX 6 6 0 0
BITMAP
08
08
40
50
30
20
ENDCHAR
STARTCHAR char87
ENCODING 87
SWIDTH 1000 0
DWIDTH 8 0
BBX 8 6 0 0
BITMAP
90
9A
4A
6A
64
24
ENDCHAR
STARTCHAR char88
ENCODING 88
SWIDTH 625 0
DWIDTH 5 0
BBX 6 6 0 0
BITMAP
08
50
30
20
50
08
ENDCHAR
STARTCHAR char89
ENCODING 89
SWIDTH 625 0
DWIDTH 5 0
BBX 6 6 0 0
BITMAP
08
40
10
20
20
20
ENDCHAR
STARTCHAR char90
ENCODING 90
SWIDTH 625 0
DWIDTH 5 0
BBX 5 6 0 0
BITMAP
78
10
20
20
40
F0
ENDCHAR
STARTCHAR char91
ENCODING 91
SWIDTH 250 0
DWIDTH 2 0
BBX 2 8 0 -2
BITMAP
40
80
80
80
80
80
80
40
ENDCHAR
STARTCHAR char92
ENCODING 92
SWIDTH 250 0
DWIDTH 2 0
BBX 4 6 -1 0
BITMAP
00
40
00
20
20
00
ENDCHAR
STARTCHAR char93
ENCODING 93
SWIDTH 250 0
DWIDTH 2 0
BBX 2 8 0 -2
BITMAP
40
40
40
40
40
40
40
00
ENDCHAR
STARTCHAR char94
ENCODING 94
SWIDTH 500 0
DWIDTH 4 0
BBX 4 6 0 0
BITMAP
00
60
40
00
00
00
ENDCHAR
STARTCHAR char95
ENCODING 95
SWIDTH 500 0
DWIDTH 4 0
BBX 5 1 0 -1
BITMAP
00
ENDCHAR
STARTCHAR char96
ENCODING 96
SWIDTH 375 0
DWIDTH 3 0
BBX 3 6 0 0
BITMAP
00
00
00
00
00
00
ENDCHAR
STARTCHAR char97
ENCODING 97
SWIDTH 500 0
DWIDTH 4 0
BBX 5 6 0 -1
BITMAP
00
50
30
90
70
00
ENDCHAR
STARTCHAR char98
ENCODING 98
SWIDTH 500 0
DWIDTH 4 0
BBX 5 7 0 -1
BITMAP
00
80
D0
90
90
F0
00
ENDCHAR
STARTCHAR char99
ENCODING 99
SWIDTH 500 0
DWIDTH 4 0
BBX 4 6 0 -1
BITMAP
00
50
80
80
60
00
ENDCHAR
STARTCHAR char100
ENCODING 100
SWIDTH 500 0
DWIDTH 4 0
BBX 4 7 0 -1
BITMAP
10
10
50
90
90
70
00
ENDCHAR
STARTCHAR char101
ENCODING 101
SWIDTH 500 0
DWIDTH 4 0
BBX 5 6 0 -1
BITMAP
00
50
90
80
70
00
ENDCHAR
STARTCHAR char102
ENCODING 102
SWIDTH 250 0
DWIDTH 2 0
BBX 3 6 0 0
BITMAP
40
40
C0
00
00
00
ENDCHAR
STARTCHAR char103
ENCODING 103
SWIDTH 500 0
DWIDTH 4 0
BBX 4 7 0 -2
BITMAP
00
50
90
90
70
10
60
ENDCHAR
STARTCHAR char104
ENCODING 104
SWIDTH 500 0
DWIDTH 4 0
BBX 4 6 0 0
BITMAP
00
00
50
10
10
10
ENDCHAR
STARTCHAR char105
ENCODING 105
SWIDTH 250 0
DWIDTH 2 0
BBX 2 6 0 0
BITMAP
00
00
00
00
00
00
ENDCHAR
STARTCHAR char106
ENCODING 106
SWIDTH 250 0
DWIDTH 2 0
BBX 3 8 -1 -2
BITMAP
00
00
00
00
00
00
00
40
ENDCHAR
STARTCHAR char107
ENCODING 107
SWIDTH 500 0
DWIDTH 4 0
BBX 4 6 0 0
BITMAP
00
80
A0
C0
A0
90
ENDCHAR
STARTCHAR char108
ENCODING 108
SWIDTH 250 0
DWIDTH 2 0
BBX 2 6 0 0
BITMAP
00
00
00
00
00
00
ENDCHAR
STARTCHAR char109
ENCODING 109
SWIDTH 875 0
DWIDTH 7 0
BBX 7 5 0 0
BITMAP
00
54
14
14
14
ENDCHAR
STARTCHAR char110
ENCODING 110
SWIDTH 500 0
DWIDTH 4 0
BBX 4 5 0 0
BITMAP
00
50
10
10
10
ENDCHAR
STARTCHAR char111
ENCODING 111
SWIDTH 500 0
DWIDTH 4 0
BBX 5 6 0 -1
BITMAP
00
50
90
90
70
00
ENDCHAR
STARTCHAR char112
ENCODING 112
SWIDTH 500 0
DWIDTH 4 0
BBX 5 7 0 -2
BITMAP
00
D0
90
90
F0
80
00
ENDCHAR
STARTCHAR char113
ENCODING 113
SWIDTH 500 0
DWIDTH 4 0
BBX 4 7 0 -2
BITMAP
00
50
90
90
70
10
00
ENDCHAR
STARTCHAR char114
ENCODING 114
SWIDTH 375 0
DWIDTH 3 0
BBX 3 5 0 0
BITMAP
00
40
00
00
00
ENDCHAR
STARTCHAR char115
ENCODING 115
SWIDTH 500 0
DWIDTH 4 0
BBX 4 6 0 -1
BITMAP
00
20
40
10
60
00
ENDCHAR
STARTCHAR char116
ENCODING 116
SWIDTH 250 0
DWIDTH 2 0
BBX 3 7 0 -1
BITMAP
00
00
C0
00
00
40
00
ENDCHAR
STARTCHAR char117
ENCODING 117
SWIDTH 500 0
DWIDTH 4 0
BBX 4 6 0 -1
BITMAP
00
90
90
10
70
00
ENDCHAR
STARTCHAR char118
ENCODING 118
SWIDTH 500 0
DWIDTH 4 0
BBX 4 5 0 0
BITMAP
00
90
00
60
60
ENDCHAR
STARTCHAR char119
ENCODING 119
SWIDTH 750 0
DWIDTH 6 0
BBX 6 5 0 0
BITMAP
00
A0
38
58
48
ENDCHAR
STARTCHAR char120
ENCODING 120
SWIDTH 500 0
DWIDTH 4 0
BBX 4 5 0 0
BITMAP
00
00
60
60
90
ENDCHAR
STARTCHAR char121
ENCODING 121
SWIDTH 500 0
DWIDTH 4 0
BBX 4 7 0 -2
BITMAP
00
90
00
60
60
40
00
ENDCHAR
STARTCHAR char122
ENCODING 122
SWIDTH 500 0
DWIDTH 4 0
BBX 4 5 0 0
BITMAP
00
20
20
40
E0
ENDCHAR
STARTCHAR char123
ENCODING 123
SWIDTH 375 0
DWIDTH 3 0
BBX 4 8 -1 -2
BITMAP
00
20
20
40
00
20
20
00
ENDCHAR
STARTCHAR char124
ENCODING 124
SWIDTH 250 0
DWIDTH 2 0
BBX 2 6 0 0
BITMAP
00
00
00
00
00
00
ENDCHAR
STARTCHAR char125
ENCODING 125
SWIDTH 375 0
DWIDTH 3 0
BBX 3 8 0 -2
BITMAP
00
40
40
00
40
40
40
00
ENDCHAR
STARTCHAR char126
ENCODING 126
SWIDTH 625 0
DWIDTH 5 0
BBX 5 3 0 0
BITMAP
40
10
00
ENDCHAR
ENDFONT
